<svg width="28" height="29" viewBox="0 0 28 29" fill="none" xmlns="http://www.w3.org/2000/svg">
<path d="M13.8167 15.2993C16.5428 15.2993 19.0221 16.1114 20.846 17.2546C21.7562 17.828 22.5345 18.5008 23.0966 19.2322C23.6496 19.953 24.0569 20.8143 24.0569 21.7352C24.0569 22.724 23.5892 23.5033 22.9157 24.0591C22.2785 24.5857 21.4377 24.9344 20.5445 25.1778C18.749 25.6657 16.3528 25.8307 13.8167 25.8307C11.2805 25.8307 8.88427 25.6669 7.08882 25.1778C6.19564 24.9344 5.3548 24.5857 4.71763 24.0591C4.04292 23.5021 3.57642 22.724 3.57642 21.7352C3.57642 20.8143 3.98375 19.953 4.53672 19.2322C5.0988 18.5008 5.87592 17.828 6.7873 17.2546C8.6112 16.1114 11.0916 15.2993 13.8167 15.2993ZM13.8167 2.42749C15.3255 2.42749 16.7725 3.04391 17.8394 4.14115C18.9063 5.23839 19.5057 6.72657 19.5057 8.2783C19.5057 9.83003 18.9063 11.3182 17.8394 12.4155C16.7725 13.5127 15.3255 14.1291 13.8167 14.1291C12.3078 14.1291 10.8608 13.5127 9.79391 12.4155C8.72701 11.3182 8.12763 9.83003 8.12763 8.2783C8.12763 6.72657 8.72701 5.23839 9.79391 4.14115C10.8608 3.04391 12.3078 2.42749 13.8167 2.42749Z" fill="white"/>
</svg>
