<svg width="898" height="177" viewBox="0 0 898 177" fill="none" xmlns="http://www.w3.org/2000/svg">
<g opacity="0.3" filter="url(#filter0_f_10_1766)">
<path d="M56.4537 106.601V57.6631H77.0076C80.0371 57.6631 82.6938 58.1991 84.9775 59.2711C87.3079 60.2965 89.1023 61.7879 90.3607 63.7454C91.6657 65.7029 92.3182 68.0333 92.3182 70.7366V71.5056C92.3182 74.5817 91.5725 77.0519 90.0811 78.9162C88.6362 80.7339 86.8651 82.0156 84.7678 82.7613V83.8799C86.5389 83.9731 87.9604 84.579 89.0324 85.6976C90.1044 86.7696 90.6404 88.3309 90.6404 90.3816V106.601H83.02V91.4303C83.02 90.1719 82.6938 89.1698 82.0413 88.4241C81.3888 87.6784 80.3401 87.3055 78.8953 87.3055H64.0041V106.601H56.4537ZM64.0041 80.4542H76.1687C78.8719 80.4542 80.9693 79.7784 82.4607 78.4268C83.9522 77.0286 84.6979 75.141 84.6979 72.764V72.2047C84.6979 69.8277 83.9522 67.9634 82.4607 66.6118C81.0159 65.2136 78.9186 64.5145 76.1687 64.5145H64.0041V80.4542ZM112.092 107.58C108.596 107.58 105.543 106.857 102.933 105.413C100.323 103.921 98.2725 101.847 96.7811 99.1905C95.3362 96.4872 94.6138 93.3645 94.6138 89.8224V88.9834C94.6138 85.3946 95.3362 82.2719 96.7811 79.6153C98.2259 76.9121 100.23 74.838 102.793 73.3932C105.403 71.9018 108.41 71.156 111.812 71.156C115.121 71.156 118.011 71.9018 120.481 73.3932C122.998 74.838 124.955 76.8655 126.354 79.4755C127.752 82.0855 128.451 85.1383 128.451 88.6339V91.3604H101.955C102.048 94.3899 103.05 96.8135 104.961 98.6312C106.918 100.402 109.342 101.288 112.231 101.288C114.935 101.288 116.962 100.682 118.314 99.4701C119.712 98.2583 120.784 96.8601 121.53 95.2754L127.472 98.3515C126.82 99.6565 125.864 101.031 124.606 102.476C123.394 103.921 121.786 105.133 119.782 106.112C117.778 107.09 115.214 107.58 112.092 107.58ZM102.024 85.8374H121.11C120.924 83.2274 119.992 81.2 118.314 79.7551C116.636 78.2637 114.445 77.518 111.742 77.518C109.039 77.518 106.825 78.2637 105.101 79.7551C103.423 81.2 102.397 83.2274 102.024 85.8374ZM143.271 107.58C140.801 107.58 138.587 107.16 136.629 106.321C134.719 105.482 133.18 104.247 132.015 102.616C130.897 100.985 130.337 99.004 130.337 96.6737C130.337 94.2967 130.897 92.3392 132.015 90.8011C133.18 89.2165 134.742 88.028 136.699 87.2356C138.703 86.4433 140.964 86.0471 143.481 86.0471H153.967V83.81C153.967 81.8059 153.362 80.1979 152.15 78.9861C150.938 77.7743 149.074 77.1684 146.557 77.1684C144.087 77.1684 142.199 77.751 140.894 78.9162C139.589 80.0814 138.727 81.5961 138.307 83.4604L131.596 81.2932C132.155 79.4289 133.041 77.751 134.252 76.2596C135.511 74.7215 137.165 73.4864 139.216 72.5543C141.267 71.6221 143.737 71.156 146.627 71.156C151.101 71.156 154.62 72.2979 157.183 74.5817C159.747 76.8655 161.028 80.1047 161.028 84.2994V98.4914C161.028 99.8896 161.681 100.589 162.986 100.589H165.922V106.601H160.539C158.908 106.601 157.58 106.182 156.554 105.343C155.529 104.504 155.016 103.362 155.016 101.917V101.707H153.967C153.595 102.406 153.035 103.222 152.29 104.154C151.544 105.086 150.449 105.902 149.004 106.601C147.559 107.254 145.648 107.58 143.271 107.58ZM144.32 101.637C147.209 101.637 149.54 100.822 151.311 99.1905C153.082 97.5126 153.967 95.2288 153.967 92.3392V91.64H143.9C141.989 91.64 140.451 92.0595 139.286 92.8985C138.121 93.6908 137.538 94.8793 137.538 96.4639C137.538 98.0486 138.144 99.307 139.356 100.239C140.568 101.171 142.222 101.637 144.32 101.637ZM181.822 107.58C178.979 107.58 176.346 106.881 173.922 105.482C171.499 104.084 169.541 102.08 168.05 99.4701C166.605 96.8135 165.882 93.6209 165.882 89.8923V88.8436C165.882 85.1616 166.605 81.9923 168.05 79.3357C169.494 76.679 171.429 74.6516 173.852 73.2534C176.276 71.8551 178.933 71.156 181.822 71.156C184.059 71.156 185.924 71.4357 187.415 71.995C188.953 72.5543 190.212 73.2767 191.19 74.1622C192.169 75.0012 192.915 75.8867 193.427 76.8188H194.546V57.6631H201.747V106.601H194.686V101.707H193.567C192.682 103.199 191.33 104.55 189.512 105.762C187.741 106.974 185.178 107.58 181.822 107.58ZM183.85 101.288C186.972 101.288 189.536 100.286 191.54 98.2816C193.591 96.2775 194.616 93.4111 194.616 89.6825V89.0533C194.616 85.3713 193.614 82.5283 191.61 80.5241C189.606 78.52 187.019 77.518 183.85 77.518C180.774 77.518 178.21 78.52 176.159 80.5241C174.155 82.5283 173.153 85.3713 173.153 89.0533V89.6825C173.153 93.4111 174.155 96.2775 176.159 98.2816C178.21 100.286 180.774 101.288 183.85 101.288ZM211.788 120.583V114.291H231.014C232.319 114.291 232.971 113.592 232.971 112.194V101.567H231.852C231.433 102.5 230.781 103.408 229.895 104.294C229.056 105.133 227.914 105.832 226.469 106.391C225.024 106.951 223.207 107.23 221.016 107.23C218.406 107.23 216.076 106.648 214.025 105.482C211.974 104.317 210.366 102.663 209.201 100.519C208.036 98.3748 207.453 95.8347 207.453 92.8985V72.1348H214.654V92.3392C214.654 95.322 215.4 97.5359 216.891 98.9807C218.383 100.379 220.457 101.078 223.114 101.078C226.05 101.078 228.404 100.099 230.175 98.1418C231.992 96.1843 232.901 93.3412 232.901 89.6126V72.1348H240.102V113.662C240.102 115.759 239.473 117.437 238.214 118.696C237.003 119.954 235.325 120.583 233.181 120.583H211.788ZM272.411 106.601C270.314 106.601 268.636 105.972 267.377 104.713C266.165 103.455 265.56 101.777 265.56 99.6799V78.2171H256.052V72.1348H265.56V60.7392H272.76V72.1348H283.037V78.2171H272.76V98.4214C272.76 99.8197 273.413 100.519 274.718 100.519H281.919V106.601H272.411ZM301.874 107.58C298.425 107.58 295.349 106.881 292.645 105.482C289.989 104.038 287.891 101.987 286.353 99.3303C284.815 96.6737 284.046 93.5277 284.046 89.8923V88.8436C284.046 85.2082 284.815 82.0855 286.353 79.4755C287.891 76.8188 289.989 74.7681 292.645 73.3233C295.349 71.8784 298.425 71.156 301.874 71.156C305.323 71.156 308.399 71.8784 311.102 73.3233C313.805 74.7681 315.926 76.8188 317.464 79.4755C319.002 82.0855 319.771 85.2082 319.771 88.8436V89.8923C319.771 93.5277 319.002 96.6737 317.464 99.3303C315.926 101.987 313.805 104.038 311.102 105.482C308.399 106.881 305.323 107.58 301.874 107.58ZM301.874 101.148C305.043 101.148 307.606 100.146 309.564 98.1418C311.568 96.0911 312.57 93.2713 312.57 89.6825V89.0533C312.57 85.4645 311.591 82.6681 309.634 80.664C307.676 78.6132 305.09 77.5879 301.874 77.5879C298.751 77.5879 296.187 78.6132 294.183 80.664C292.226 82.6681 291.247 85.4645 291.247 89.0533V89.6825C291.247 93.2713 292.226 96.0911 294.183 98.1418C296.187 100.146 298.751 101.148 301.874 101.148Z" fill="white"/>
<path d="M337.257 106.601V57.6631H368.088V64.5145H344.807V78.5666H366.13V85.4179H344.807V99.7498H368.437V106.601H337.257ZM371.974 106.601V72.1348H379.035V76.1896H380.154C380.807 74.9779 381.855 73.9059 383.3 72.9737C384.745 72.0416 386.702 71.5755 389.173 71.5755C391.736 71.5755 393.787 72.1115 395.325 73.1835C396.909 74.2088 398.098 75.5371 398.89 77.1684H400.009C400.801 75.5837 401.943 74.2554 403.435 73.1835C404.973 72.1115 407.14 71.5755 409.936 71.5755C412.173 71.5755 414.154 72.0416 415.879 72.9737C417.603 73.8593 418.978 75.2109 420.004 77.0286C421.029 78.7997 421.542 81.0135 421.542 83.6702V106.601H414.341V84.2294C414.341 82.1321 413.758 80.5241 412.593 79.4056C411.474 78.2404 409.866 77.6578 407.769 77.6578C405.532 77.6578 403.738 78.3802 402.386 79.825C401.034 81.2699 400.358 83.3439 400.358 86.0471V106.601H393.158V84.2294C393.158 82.1321 392.575 80.5241 391.41 79.4056C390.291 78.2404 388.683 77.6578 386.586 77.6578C384.349 77.6578 382.554 78.3802 381.203 79.825C379.851 81.2699 379.175 83.3439 379.175 86.0471V106.601H371.974ZM427.374 120.583V72.1348H434.435V77.0985H435.553C436.439 75.5604 437.767 74.1855 439.538 72.9737C441.356 71.7619 443.943 71.156 447.298 71.156C450.188 71.156 452.821 71.8551 455.198 73.2534C457.622 74.6516 459.556 76.679 461.001 79.3357C462.493 81.9457 463.238 85.115 463.238 88.8436V89.8923C463.238 93.6209 462.516 96.8135 461.071 99.4701C459.626 102.08 457.692 104.084 455.268 105.482C452.845 106.881 450.188 107.58 447.298 107.58C445.061 107.58 443.174 107.3 441.636 106.741C440.098 106.182 438.862 105.482 437.93 104.644C436.998 103.758 436.252 102.849 435.693 101.917H434.575V120.583H427.374ZM445.201 101.288C448.37 101.288 450.957 100.286 452.961 98.2816C454.965 96.2775 455.967 93.4111 455.967 89.6825V89.0533C455.967 85.3713 454.942 82.5283 452.891 80.5241C450.887 78.52 448.324 77.518 445.201 77.518C442.125 77.518 439.562 78.52 437.511 80.5241C435.507 82.5283 434.505 85.3713 434.505 89.0533V89.6825C434.505 93.4111 435.507 96.2775 437.511 98.2816C439.562 100.286 442.125 101.288 445.201 101.288ZM467.616 106.601V57.6631H474.817V106.601H467.616ZM497.109 107.58C493.66 107.58 490.584 106.881 487.881 105.482C485.224 104.038 483.127 101.987 481.589 99.3303C480.051 96.6737 479.282 93.5277 479.282 89.8923V88.8436C479.282 85.2082 480.051 82.0855 481.589 79.4755C483.127 76.8188 485.224 74.7681 487.881 73.3233C490.584 71.8784 493.66 71.156 497.109 71.156C500.558 71.156 503.634 71.8784 506.337 73.3233C509.041 74.7681 511.161 76.8188 512.699 79.4755C514.237 82.0855 515.006 85.2082 515.006 88.8436V89.8923C515.006 93.5277 514.237 96.6737 512.699 99.3303C511.161 101.987 509.041 104.038 506.337 105.482C503.634 106.881 500.558 107.58 497.109 107.58ZM497.109 101.148C500.278 101.148 502.842 100.146 504.799 98.1418C506.804 96.0911 507.806 93.2713 507.806 89.6825V89.0533C507.806 85.4645 506.827 82.6681 504.869 80.664C502.912 78.6132 500.325 77.5879 497.109 77.5879C493.986 77.5879 491.423 78.6132 489.419 80.664C487.461 82.6681 486.483 85.4645 486.483 89.0533V89.6825C486.483 93.2713 487.461 96.0911 489.419 98.1418C491.423 100.146 493.986 101.148 497.109 101.148ZM523.412 120.583V114.291H542.638C543.943 114.291 544.595 113.592 544.595 112.194V101.567H543.477C543.057 102.5 542.405 103.408 541.519 104.294C540.68 105.133 539.538 105.832 538.094 106.391C536.649 106.951 534.831 107.23 532.64 107.23C530.03 107.23 527.7 106.648 525.649 105.482C523.599 104.317 521.991 102.663 520.825 100.519C519.66 98.3748 519.078 95.8347 519.078 92.8985V72.1348H526.279V92.3392C526.279 95.322 527.024 97.5359 528.516 98.9807C530.007 100.379 532.081 101.078 534.738 101.078C537.674 101.078 540.028 100.099 541.799 98.1418C543.617 96.1843 544.525 93.3412 544.525 89.6126V72.1348H551.726V113.662C551.726 115.759 551.097 117.437 549.839 118.696C548.627 119.954 546.949 120.583 544.805 120.583H523.412ZM582.795 106.601V88.8436L565.806 57.6631H574.335L586.081 79.825H587.129L598.874 57.6631H607.403L590.415 88.8436V106.601H582.795ZM619.028 107.58C615.579 107.58 612.503 106.881 609.8 105.482C607.143 104.038 605.046 101.987 603.508 99.3303C601.97 96.6737 601.201 93.5277 601.201 89.8923V88.8436C601.201 85.2082 601.97 82.0855 603.508 79.4755C605.046 76.8188 607.143 74.7681 609.8 73.3233C612.503 71.8784 615.579 71.156 619.028 71.156C622.477 71.156 625.553 71.8784 628.256 73.3233C630.959 74.7681 633.08 76.8188 634.618 79.4755C636.156 82.0855 636.925 85.2082 636.925 88.8436V89.8923C636.925 93.5277 636.156 96.6737 634.618 99.3303C633.08 101.987 630.959 104.038 628.256 105.482C625.553 106.881 622.477 107.58 619.028 107.58ZM619.028 101.148C622.197 101.148 624.761 100.146 626.718 98.1418C628.722 96.0911 629.724 93.2713 629.724 89.6825V89.0533C629.724 85.4645 628.746 82.6681 626.788 80.664C624.831 78.6132 622.244 77.5879 619.028 77.5879C615.905 77.5879 613.342 78.6132 611.338 80.664C609.38 82.6681 608.401 85.4645 608.401 89.0533V89.6825C608.401 93.2713 609.38 96.0911 611.338 98.1418C613.342 100.146 615.905 101.148 619.028 101.148ZM654.559 107.23C651.949 107.23 649.619 106.648 647.568 105.482C645.517 104.317 643.91 102.663 642.744 100.519C641.579 98.3748 640.997 95.8114 640.997 92.8285V72.1348H648.197V92.3392C648.197 95.322 648.943 97.5359 650.435 98.9807C651.926 100.379 654 101.078 656.657 101.078C659.593 101.078 661.947 100.099 663.718 98.1418C665.535 96.1377 666.444 93.2713 666.444 89.5427V72.1348H673.645V106.601H666.584V101.428H665.466C664.813 102.826 663.648 104.154 661.97 105.413C660.292 106.624 657.822 107.23 654.559 107.23ZM679.745 106.601V72.1348H686.806V76.1896H687.925C688.484 74.7448 689.37 73.6961 690.582 73.0436C691.84 72.3445 693.378 71.995 695.196 71.995H699.321V78.4967H694.916C692.586 78.4967 690.675 79.1492 689.183 80.4542C687.692 81.7126 686.946 83.6702 686.946 86.3268V106.601H679.745ZM715.608 107.58C711.227 107.58 707.592 106.601 704.702 104.644C701.812 102.686 700.041 99.7265 699.389 95.7648L706.1 94.1569C706.473 96.0678 707.102 97.5825 707.988 98.7011C708.873 99.8197 709.969 100.612 711.274 101.078C712.625 101.544 714.07 101.777 715.608 101.777C717.892 101.777 719.64 101.334 720.852 100.449C722.11 99.5633 722.739 98.4214 722.739 97.0232C722.739 95.625 722.157 94.5996 720.991 93.9471C719.826 93.2946 718.102 92.7586 715.818 92.3392L713.441 91.9197C711.111 91.5002 708.99 90.8943 707.079 90.102C705.168 89.3097 703.653 88.2144 702.535 86.8162C701.416 85.4179 700.857 83.6236 700.857 81.433C700.857 78.1705 702.069 75.6537 704.492 73.8826C706.916 72.0649 710.132 71.156 714.14 71.156C718.008 71.156 721.178 72.0416 723.648 73.8127C726.165 75.5371 727.796 77.8908 728.542 80.8737L721.83 82.7613C721.411 80.664 720.525 79.1958 719.174 78.3569C717.822 77.4714 716.144 77.0286 714.14 77.0286C712.183 77.0286 710.644 77.4014 709.526 78.1472C708.407 78.8463 707.848 79.8483 707.848 81.1534C707.848 82.5516 708.384 83.5769 709.456 84.2294C710.575 84.882 712.066 85.3713 713.93 85.6976L716.377 86.1171C718.847 86.5365 721.108 87.1191 723.159 87.8648C725.209 88.6106 726.817 89.6825 727.983 91.0808C729.194 92.479 729.8 94.3433 729.8 96.6737C729.8 100.123 728.518 102.803 725.955 104.713C723.392 106.624 719.943 107.58 715.608 107.58ZM749.473 107.58C745.977 107.58 742.924 106.857 740.314 105.413C737.704 103.921 735.653 101.847 734.162 99.1905C732.717 96.4872 731.995 93.3645 731.995 89.8224V88.9834C731.995 85.3946 732.717 82.2719 734.162 79.6153C735.607 76.9121 737.611 74.838 740.174 73.3932C742.784 71.9018 745.791 71.156 749.193 71.156C752.502 71.156 755.392 71.9018 757.862 73.3932C760.379 74.838 762.336 76.8655 763.735 79.4755C765.133 82.0855 765.832 85.1383 765.832 88.6339V91.3604H739.335C739.429 94.3899 740.431 96.8135 742.342 98.6312C744.299 100.402 746.723 101.288 749.612 101.288C752.316 101.288 754.343 100.682 755.695 99.4701C757.093 98.2583 758.165 96.8601 758.911 95.2754L764.853 98.3515C764.201 99.6565 763.245 101.031 761.987 102.476C760.775 103.921 759.167 105.133 757.163 106.112C755.159 107.09 752.595 107.58 749.473 107.58ZM739.405 85.8374H758.491C758.305 83.2274 757.373 81.2 755.695 79.7551C754.017 78.2637 751.826 77.518 749.123 77.518C746.42 77.518 744.206 78.2637 742.481 79.7551C740.804 81.2 739.778 83.2274 739.405 85.8374ZM769.956 106.601V57.6631H777.156V106.601H769.956ZM789.521 106.601V78.2171H779.873V72.1348H789.521V64.5844C789.521 62.487 790.15 60.8092 791.409 59.5508C792.667 58.2923 794.345 57.6631 796.442 57.6631H805.321V63.7454H798.749C797.398 63.7454 796.722 64.4445 796.722 65.8428V72.1348H806.649V78.2171H796.722V106.601H789.521ZM819.754 91.9896V89.0533C819.754 86.8162 820.174 84.9985 821.013 83.6002C821.898 82.202 823.39 81.0135 825.487 80.0348L827.025 79.3357C829.262 78.3569 831.01 77.2383 832.268 75.9799C833.527 74.7215 834.156 72.9737 834.156 70.7366C834.156 69.1053 833.737 67.7304 832.898 66.6118C832.059 65.4932 830.917 64.631 829.472 64.0251C828.027 63.4192 826.373 63.1162 824.508 63.1162C822.644 63.1162 820.919 63.4425 819.335 64.095C817.797 64.7009 816.562 65.6563 815.63 66.9614C814.697 68.2664 814.231 69.8976 814.231 71.8551V73.8127H806.821V71.8551C806.821 68.6858 807.59 65.9593 809.128 63.6755C810.712 61.3917 812.833 59.6673 815.49 58.5021C818.146 57.2903 821.153 56.6844 824.508 56.6844C827.817 56.6844 830.754 57.2903 833.317 58.5021C835.881 59.7139 837.885 61.3684 839.329 63.4658C840.821 65.5631 841.567 67.9867 841.567 70.7366C841.567 73.4398 841.054 75.7003 840.029 77.518C839.05 79.289 837.768 80.7339 836.183 81.8525C834.599 82.971 832.921 83.9265 831.15 84.7188L829.612 85.4179C828.773 85.7908 828.167 86.2569 827.794 86.8162C827.468 87.3755 827.305 88.2144 827.305 89.333V91.9896H819.754ZM823.669 107.58C822.085 107.58 820.733 107.044 819.614 105.972C818.542 104.9 818.007 103.525 818.007 101.847C818.007 100.169 818.542 98.8176 819.614 97.7922C820.733 96.7203 822.085 96.1843 823.669 96.1843C825.347 96.1843 826.722 96.7203 827.794 97.7922C828.866 98.8176 829.402 100.169 829.402 101.847C829.402 103.525 828.866 104.9 827.794 105.972C826.722 107.044 825.347 107.58 823.669 107.58Z" fill="url(#paint0_linear_10_1766)"/>
</g>
<path d="M56.4537 106.601V57.6631H77.0076C80.0371 57.6631 82.6938 58.1991 84.9775 59.2711C87.3079 60.2965 89.1023 61.7879 90.3607 63.7454C91.6657 65.7029 92.3182 68.0333 92.3182 70.7366V71.5056C92.3182 74.5817 91.5725 77.0519 90.0811 78.9162C88.6362 80.7339 86.8651 82.0156 84.7678 82.7613V83.8799C86.5389 83.9731 87.9604 84.579 89.0324 85.6976C90.1044 86.7696 90.6404 88.3309 90.6404 90.3816V106.601H83.02V91.4303C83.02 90.1719 82.6938 89.1698 82.0413 88.4241C81.3888 87.6784 80.3401 87.3055 78.8953 87.3055H64.0041V106.601H56.4537ZM64.0041 80.4542H76.1687C78.8719 80.4542 80.9693 79.7784 82.4607 78.4268C83.9522 77.0286 84.6979 75.141 84.6979 72.764V72.2047C84.6979 69.8277 83.9522 67.9634 82.4607 66.6118C81.0159 65.2136 78.9186 64.5145 76.1687 64.5145H64.0041V80.4542ZM112.092 107.58C108.596 107.58 105.543 106.857 102.933 105.413C100.323 103.921 98.2725 101.847 96.7811 99.1905C95.3362 96.4872 94.6138 93.3645 94.6138 89.8224V88.9834C94.6138 85.3946 95.3362 82.2719 96.7811 79.6153C98.2259 76.9121 100.23 74.838 102.793 73.3932C105.403 71.9018 108.41 71.156 111.812 71.156C115.121 71.156 118.011 71.9018 120.481 73.3932C122.998 74.838 124.955 76.8655 126.354 79.4755C127.752 82.0855 128.451 85.1383 128.451 88.6339V91.3604H101.955C102.048 94.3899 103.05 96.8135 104.961 98.6312C106.918 100.402 109.342 101.288 112.231 101.288C114.935 101.288 116.962 100.682 118.314 99.4701C119.712 98.2583 120.784 96.8601 121.53 95.2754L127.472 98.3515C126.82 99.6565 125.864 101.031 124.606 102.476C123.394 103.921 121.786 105.133 119.782 106.112C117.778 107.09 115.214 107.58 112.092 107.58ZM102.024 85.8374H121.11C120.924 83.2274 119.992 81.2 118.314 79.7551C116.636 78.2637 114.445 77.518 111.742 77.518C109.039 77.518 106.825 78.2637 105.101 79.7551C103.423 81.2 102.397 83.2274 102.024 85.8374ZM143.271 107.58C140.801 107.58 138.587 107.16 136.629 106.321C134.719 105.482 133.18 104.247 132.015 102.616C130.897 100.985 130.337 99.004 130.337 96.6737C130.337 94.2967 130.897 92.3392 132.015 90.8011C133.18 89.2165 134.742 88.028 136.699 87.2356C138.703 86.4433 140.964 86.0471 143.481 86.0471H153.967V83.81C153.967 81.8059 153.362 80.1979 152.15 78.9861C150.938 77.7743 149.074 77.1684 146.557 77.1684C144.087 77.1684 142.199 77.751 140.894 78.9162C139.589 80.0814 138.727 81.5961 138.307 83.4604L131.596 81.2932C132.155 79.4289 133.041 77.751 134.252 76.2596C135.511 74.7215 137.165 73.4864 139.216 72.5543C141.267 71.6221 143.737 71.156 146.627 71.156C151.101 71.156 154.62 72.2979 157.183 74.5817C159.747 76.8655 161.028 80.1047 161.028 84.2994V98.4914C161.028 99.8896 161.681 100.589 162.986 100.589H165.922V106.601H160.539C158.908 106.601 157.58 106.182 156.554 105.343C155.529 104.504 155.016 103.362 155.016 101.917V101.707H153.967C153.595 102.406 153.035 103.222 152.29 104.154C151.544 105.086 150.449 105.902 149.004 106.601C147.559 107.254 145.648 107.58 143.271 107.58ZM144.32 101.637C147.209 101.637 149.54 100.822 151.311 99.1905C153.082 97.5126 153.967 95.2288 153.967 92.3392V91.64H143.9C141.989 91.64 140.451 92.0595 139.286 92.8985C138.121 93.6908 137.538 94.8793 137.538 96.4639C137.538 98.0486 138.144 99.307 139.356 100.239C140.568 101.171 142.222 101.637 144.32 101.637ZM181.822 107.58C178.979 107.58 176.346 106.881 173.922 105.482C171.499 104.084 169.541 102.08 168.05 99.4701C166.605 96.8135 165.882 93.6209 165.882 89.8923V88.8436C165.882 85.1616 166.605 81.9923 168.05 79.3357C169.494 76.679 171.429 74.6516 173.852 73.2534C176.276 71.8551 178.933 71.156 181.822 71.156C184.059 71.156 185.924 71.4357 187.415 71.995C188.953 72.5543 190.212 73.2767 191.19 74.1622C192.169 75.0012 192.915 75.8867 193.427 76.8188H194.546V57.6631H201.747V106.601H194.686V101.707H193.567C192.682 103.199 191.33 104.55 189.512 105.762C187.741 106.974 185.178 107.58 181.822 107.58ZM183.85 101.288C186.972 101.288 189.536 100.286 191.54 98.2816C193.591 96.2775 194.616 93.4111 194.616 89.6825V89.0533C194.616 85.3713 193.614 82.5283 191.61 80.5241C189.606 78.52 187.019 77.518 183.85 77.518C180.774 77.518 178.21 78.52 176.159 80.5241C174.155 82.5283 173.153 85.3713 173.153 89.0533V89.6825C173.153 93.4111 174.155 96.2775 176.159 98.2816C178.21 100.286 180.774 101.288 183.85 101.288ZM211.788 120.583V114.291H231.014C232.319 114.291 232.971 113.592 232.971 112.194V101.567H231.852C231.433 102.5 230.781 103.408 229.895 104.294C229.056 105.133 227.914 105.832 226.469 106.391C225.024 106.951 223.207 107.23 221.016 107.23C218.406 107.23 216.076 106.648 214.025 105.482C211.974 104.317 210.366 102.663 209.201 100.519C208.036 98.3748 207.453 95.8347 207.453 92.8985V72.1348H214.654V92.3392C214.654 95.322 215.4 97.5359 216.891 98.9807C218.383 100.379 220.457 101.078 223.114 101.078C226.05 101.078 228.404 100.099 230.175 98.1418C231.992 96.1843 232.901 93.3412 232.901 89.6126V72.1348H240.102V113.662C240.102 115.759 239.473 117.437 238.214 118.696C237.003 119.954 235.325 120.583 233.181 120.583H211.788ZM272.411 106.601C270.314 106.601 268.636 105.972 267.377 104.713C266.165 103.455 265.56 101.777 265.56 99.6799V78.2171H256.052V72.1348H265.56V60.7392H272.76V72.1348H283.037V78.2171H272.76V98.4214C272.76 99.8197 273.413 100.519 274.718 100.519H281.919V106.601H272.411ZM301.874 107.58C298.425 107.58 295.349 106.881 292.645 105.482C289.989 104.038 287.891 101.987 286.353 99.3303C284.815 96.6737 284.046 93.5277 284.046 89.8923V88.8436C284.046 85.2082 284.815 82.0855 286.353 79.4755C287.891 76.8188 289.989 74.7681 292.645 73.3233C295.349 71.8784 298.425 71.156 301.874 71.156C305.323 71.156 308.399 71.8784 311.102 73.3233C313.805 74.7681 315.926 76.8188 317.464 79.4755C319.002 82.0855 319.771 85.2082 319.771 88.8436V89.8923C319.771 93.5277 319.002 96.6737 317.464 99.3303C315.926 101.987 313.805 104.038 311.102 105.482C308.399 106.881 305.323 107.58 301.874 107.58ZM301.874 101.148C305.043 101.148 307.606 100.146 309.564 98.1418C311.568 96.0911 312.57 93.2713 312.57 89.6825V89.0533C312.57 85.4645 311.591 82.6681 309.634 80.664C307.676 78.6132 305.09 77.5879 301.874 77.5879C298.751 77.5879 296.187 78.6132 294.183 80.664C292.226 82.6681 291.247 85.4645 291.247 89.0533V89.6825C291.247 93.2713 292.226 96.0911 294.183 98.1418C296.187 100.146 298.751 101.148 301.874 101.148Z" fill="white"/>
<path d="M337.257 106.601V57.6631H368.088V64.5145H344.807V78.5666H366.13V85.4179H344.807V99.7498H368.437V106.601H337.257ZM371.974 106.601V72.1348H379.035V76.1896H380.154C380.807 74.9779 381.855 73.9059 383.3 72.9737C384.745 72.0416 386.702 71.5755 389.173 71.5755C391.736 71.5755 393.787 72.1115 395.325 73.1835C396.909 74.2088 398.098 75.5371 398.89 77.1684H400.009C400.801 75.5837 401.943 74.2554 403.435 73.1835C404.973 72.1115 407.14 71.5755 409.936 71.5755C412.173 71.5755 414.154 72.0416 415.879 72.9737C417.603 73.8593 418.978 75.2109 420.004 77.0286C421.029 78.7997 421.542 81.0135 421.542 83.6702V106.601H414.341V84.2294C414.341 82.1321 413.758 80.5241 412.593 79.4056C411.474 78.2404 409.866 77.6578 407.769 77.6578C405.532 77.6578 403.738 78.3802 402.386 79.825C401.034 81.2699 400.358 83.3439 400.358 86.0471V106.601H393.158V84.2294C393.158 82.1321 392.575 80.5241 391.41 79.4056C390.291 78.2404 388.683 77.6578 386.586 77.6578C384.349 77.6578 382.554 78.3802 381.203 79.825C379.851 81.2699 379.175 83.3439 379.175 86.0471V106.601H371.974ZM427.374 120.583V72.1348H434.435V77.0985H435.553C436.439 75.5604 437.767 74.1855 439.538 72.9737C441.356 71.7619 443.943 71.156 447.298 71.156C450.188 71.156 452.821 71.8551 455.198 73.2534C457.622 74.6516 459.556 76.679 461.001 79.3357C462.493 81.9457 463.238 85.115 463.238 88.8436V89.8923C463.238 93.6209 462.516 96.8135 461.071 99.4701C459.626 102.08 457.692 104.084 455.268 105.482C452.845 106.881 450.188 107.58 447.298 107.58C445.061 107.58 443.174 107.3 441.636 106.741C440.098 106.182 438.862 105.482 437.93 104.644C436.998 103.758 436.252 102.849 435.693 101.917H434.575V120.583H427.374ZM445.201 101.288C448.37 101.288 450.957 100.286 452.961 98.2816C454.965 96.2775 455.967 93.4111 455.967 89.6825V89.0533C455.967 85.3713 454.942 82.5283 452.891 80.5241C450.887 78.52 448.324 77.518 445.201 77.518C442.125 77.518 439.562 78.52 437.511 80.5241C435.507 82.5283 434.505 85.3713 434.505 89.0533V89.6825C434.505 93.4111 435.507 96.2775 437.511 98.2816C439.562 100.286 442.125 101.288 445.201 101.288ZM467.616 106.601V57.6631H474.817V106.601H467.616ZM497.109 107.58C493.66 107.58 490.584 106.881 487.881 105.482C485.224 104.038 483.127 101.987 481.589 99.3303C480.051 96.6737 479.282 93.5277 479.282 89.8923V88.8436C479.282 85.2082 480.051 82.0855 481.589 79.4755C483.127 76.8188 485.224 74.7681 487.881 73.3233C490.584 71.8784 493.66 71.156 497.109 71.156C500.558 71.156 503.634 71.8784 506.337 73.3233C509.041 74.7681 511.161 76.8188 512.699 79.4755C514.237 82.0855 515.006 85.2082 515.006 88.8436V89.8923C515.006 93.5277 514.237 96.6737 512.699 99.3303C511.161 101.987 509.041 104.038 506.337 105.482C503.634 106.881 500.558 107.58 497.109 107.58ZM497.109 101.148C500.278 101.148 502.842 100.146 504.799 98.1418C506.804 96.0911 507.806 93.2713 507.806 89.6825V89.0533C507.806 85.4645 506.827 82.6681 504.869 80.664C502.912 78.6132 500.325 77.5879 497.109 77.5879C493.986 77.5879 491.423 78.6132 489.419 80.664C487.461 82.6681 486.483 85.4645 486.483 89.0533V89.6825C486.483 93.2713 487.461 96.0911 489.419 98.1418C491.423 100.146 493.986 101.148 497.109 101.148ZM523.412 120.583V114.291H542.638C543.943 114.291 544.595 113.592 544.595 112.194V101.567H543.477C543.057 102.5 542.405 103.408 541.519 104.294C540.68 105.133 539.538 105.832 538.094 106.391C536.649 106.951 534.831 107.23 532.64 107.23C530.03 107.23 527.7 106.648 525.649 105.482C523.599 104.317 521.991 102.663 520.825 100.519C519.66 98.3748 519.078 95.8347 519.078 92.8985V72.1348H526.279V92.3392C526.279 95.322 527.024 97.5359 528.516 98.9807C530.007 100.379 532.081 101.078 534.738 101.078C537.674 101.078 540.028 100.099 541.799 98.1418C543.617 96.1843 544.525 93.3412 544.525 89.6126V72.1348H551.726V113.662C551.726 115.759 551.097 117.437 549.839 118.696C548.627 119.954 546.949 120.583 544.805 120.583H523.412ZM582.795 106.601V88.8436L565.806 57.6631H574.335L586.081 79.825H587.129L598.874 57.6631H607.403L590.415 88.8436V106.601H582.795ZM619.028 107.58C615.579 107.58 612.503 106.881 609.8 105.482C607.143 104.038 605.046 101.987 603.508 99.3303C601.97 96.6737 601.201 93.5277 601.201 89.8923V88.8436C601.201 85.2082 601.97 82.0855 603.508 79.4755C605.046 76.8188 607.143 74.7681 609.8 73.3233C612.503 71.8784 615.579 71.156 619.028 71.156C622.477 71.156 625.553 71.8784 628.256 73.3233C630.959 74.7681 633.08 76.8188 634.618 79.4755C636.156 82.0855 636.925 85.2082 636.925 88.8436V89.8923C636.925 93.5277 636.156 96.6737 634.618 99.3303C633.08 101.987 630.959 104.038 628.256 105.482C625.553 106.881 622.477 107.58 619.028 107.58ZM619.028 101.148C622.197 101.148 624.761 100.146 626.718 98.1418C628.722 96.0911 629.724 93.2713 629.724 89.6825V89.0533C629.724 85.4645 628.746 82.6681 626.788 80.664C624.831 78.6132 622.244 77.5879 619.028 77.5879C615.905 77.5879 613.342 78.6132 611.338 80.664C609.38 82.6681 608.401 85.4645 608.401 89.0533V89.6825C608.401 93.2713 609.38 96.0911 611.338 98.1418C613.342 100.146 615.905 101.148 619.028 101.148ZM654.559 107.23C651.949 107.23 649.619 106.648 647.568 105.482C645.517 104.317 643.91 102.663 642.744 100.519C641.579 98.3748 640.997 95.8114 640.997 92.8285V72.1348H648.197V92.3392C648.197 95.322 648.943 97.5359 650.435 98.9807C651.926 100.379 654 101.078 656.657 101.078C659.593 101.078 661.947 100.099 663.718 98.1418C665.535 96.1377 666.444 93.2713 666.444 89.5427V72.1348H673.645V106.601H666.584V101.428H665.466C664.813 102.826 663.648 104.154 661.97 105.413C660.292 106.624 657.822 107.23 654.559 107.23ZM679.745 106.601V72.1348H686.806V76.1896H687.925C688.484 74.7448 689.37 73.6961 690.582 73.0436C691.84 72.3445 693.378 71.995 695.196 71.995H699.321V78.4967H694.916C692.586 78.4967 690.675 79.1492 689.183 80.4542C687.692 81.7126 686.946 83.6702 686.946 86.3268V106.601H679.745ZM715.608 107.58C711.227 107.58 707.592 106.601 704.702 104.644C701.812 102.686 700.041 99.7265 699.389 95.7648L706.1 94.1569C706.473 96.0678 707.102 97.5825 707.988 98.7011C708.873 99.8197 709.969 100.612 711.274 101.078C712.625 101.544 714.07 101.777 715.608 101.777C717.892 101.777 719.64 101.334 720.852 100.449C722.11 99.5633 722.739 98.4214 722.739 97.0232C722.739 95.625 722.157 94.5996 720.991 93.9471C719.826 93.2946 718.102 92.7586 715.818 92.3392L713.441 91.9197C711.111 91.5002 708.99 90.8943 707.079 90.102C705.168 89.3097 703.653 88.2144 702.535 86.8162C701.416 85.4179 700.857 83.6236 700.857 81.433C700.857 78.1705 702.069 75.6537 704.492 73.8826C706.916 72.0649 710.132 71.156 714.14 71.156C718.008 71.156 721.178 72.0416 723.648 73.8127C726.165 75.5371 727.796 77.8908 728.542 80.8737L721.83 82.7613C721.411 80.664 720.525 79.1958 719.174 78.3569C717.822 77.4714 716.144 77.0286 714.14 77.0286C712.183 77.0286 710.644 77.4014 709.526 78.1472C708.407 78.8463 707.848 79.8483 707.848 81.1534C707.848 82.5516 708.384 83.5769 709.456 84.2294C710.575 84.882 712.066 85.3713 713.93 85.6976L716.377 86.1171C718.847 86.5365 721.108 87.1191 723.159 87.8648C725.209 88.6106 726.817 89.6825 727.983 91.0808C729.194 92.479 729.8 94.3433 729.8 96.6737C729.8 100.123 728.518 102.803 725.955 104.713C723.392 106.624 719.943 107.58 715.608 107.58ZM749.473 107.58C745.977 107.58 742.924 106.857 740.314 105.413C737.704 103.921 735.653 101.847 734.162 99.1905C732.717 96.4872 731.995 93.3645 731.995 89.8224V88.9834C731.995 85.3946 732.717 82.2719 734.162 79.6153C735.607 76.9121 737.611 74.838 740.174 73.3932C742.784 71.9018 745.791 71.156 749.193 71.156C752.502 71.156 755.392 71.9018 757.862 73.3932C760.379 74.838 762.336 76.8655 763.735 79.4755C765.133 82.0855 765.832 85.1383 765.832 88.6339V91.3604H739.335C739.429 94.3899 740.431 96.8135 742.342 98.6312C744.299 100.402 746.723 101.288 749.612 101.288C752.316 101.288 754.343 100.682 755.695 99.4701C757.093 98.2583 758.165 96.8601 758.911 95.2754L764.853 98.3515C764.201 99.6565 763.245 101.031 761.987 102.476C760.775 103.921 759.167 105.133 757.163 106.112C755.159 107.09 752.595 107.58 749.473 107.58ZM739.405 85.8374H758.491C758.305 83.2274 757.373 81.2 755.695 79.7551C754.017 78.2637 751.826 77.518 749.123 77.518C746.42 77.518 744.206 78.2637 742.481 79.7551C740.804 81.2 739.778 83.2274 739.405 85.8374ZM769.956 106.601V57.6631H777.156V106.601H769.956ZM789.521 106.601V78.2171H779.873V72.1348H789.521V64.5844C789.521 62.487 790.15 60.8092 791.409 59.5508C792.667 58.2923 794.345 57.6631 796.442 57.6631H805.321V63.7454H798.749C797.398 63.7454 796.722 64.4445 796.722 65.8428V72.1348H806.649V78.2171H796.722V106.601H789.521ZM819.754 91.9896V89.0533C819.754 86.8162 820.174 84.9985 821.013 83.6002C821.898 82.202 823.39 81.0135 825.487 80.0348L827.025 79.3357C829.262 78.3569 831.01 77.2383 832.268 75.9799C833.527 74.7215 834.156 72.9737 834.156 70.7366C834.156 69.1053 833.737 67.7304 832.898 66.6118C832.059 65.4932 830.917 64.631 829.472 64.0251C828.027 63.4192 826.373 63.1162 824.508 63.1162C822.644 63.1162 820.919 63.4425 819.335 64.095C817.797 64.7009 816.562 65.6563 815.63 66.9614C814.697 68.2664 814.231 69.8976 814.231 71.8551V73.8127H806.821V71.8551C806.821 68.6858 807.59 65.9593 809.128 63.6755C810.712 61.3917 812.833 59.6673 815.49 58.5021C818.146 57.2903 821.153 56.6844 824.508 56.6844C827.817 56.6844 830.754 57.2903 833.317 58.5021C835.881 59.7139 837.885 61.3684 839.329 63.4658C840.821 65.5631 841.567 67.9867 841.567 70.7366C841.567 73.4398 841.054 75.7003 840.029 77.518C839.05 79.289 837.768 80.7339 836.183 81.8525C834.599 82.971 832.921 83.9265 831.15 84.7188L829.612 85.4179C828.773 85.7908 828.167 86.2569 827.794 86.8162C827.468 87.3755 827.305 88.2144 827.305 89.333V91.9896H819.754ZM823.669 107.58C822.085 107.58 820.733 107.044 819.614 105.972C818.542 104.9 818.007 103.525 818.007 101.847C818.007 100.169 818.542 98.8176 819.614 97.7922C820.733 96.7203 822.085 96.1843 823.669 96.1843C825.347 96.1843 826.722 96.7203 827.794 97.7922C828.866 98.8176 829.402 100.169 829.402 101.847C829.402 103.525 828.866 104.9 827.794 105.972C826.722 107.044 825.347 107.58 823.669 107.58Z" fill="url(#paint1_linear_10_1766)"/>
<defs>
<filter id="filter0_f_10_1766" x="0.550423" y="0.781136" width="896.919" height="175.705" filterUnits="userSpaceOnUse" color-interpolation-filters="sRGB">
<feFlood flood-opacity="0" result="BackgroundImageFix"/>
<feBlend mode="normal" in="SourceGraphic" in2="BackgroundImageFix" result="shape"/>
<feGaussianBlur stdDeviation="27.9516" result="effect1_foregroundBlur_10_1766"/>
</filter>
<linearGradient id="paint0_linear_10_1766" x1="356.721" y1="70.2994" x2="852.861" y2="67.6761" gradientUnits="userSpaceOnUse">
<stop offset="0.34375" stop-color="#FFB547"/>
<stop offset="1" stop-color="#9747FF"/>
</linearGradient>
<linearGradient id="paint1_linear_10_1766" x1="880.376" y1="82.101" x2="326.585" y2="82.1011" gradientUnits="userSpaceOnUse">
<stop stop-color="#9747FF"/>
<stop offset="1" stop-color="#FFB547"/>
</linearGradient>
</defs>
</svg>
